<svg xmlns="http://www.w3.org/2000/svg" width="69" height="140" viewBox="0 0 69 140" fill="none">
  <path d="M64.3306 137.243C64.5306 136.143 65.6307 135.343 66.7307 135.543C67.8307 135.743 68.6307 136.843 68.4307 137.943C68.2307 139.043 67.1307 139.843 66.0307 139.643C64.8307 139.443 64.1306 138.343 64.3306 137.243Z" fill="#50945D"/>
  <path d="M48.2306 137.243C48.4306 136.143 49.5306 135.343 50.6306 135.543C51.7306 135.743 52.5306 136.843 52.3306 137.943C52.1306 139.043 51.0306 139.843 49.9306 139.643C48.8306 139.443 48.0306 138.343 48.2306 137.243Z" fill="#50945D"/>
  <path d="M32.2306 137.243C32.4306 136.143 33.5306 135.343 34.6306 135.543C35.7306 135.743 36.5306 136.843 36.3306 137.943C36.1306 139.043 35.0306 139.843 33.9306 139.643C32.7306 139.443 31.9306 138.343 32.2306 137.243Z" fill="#50945D"/>
  <path d="M16.1307 137.243C16.3307 136.143 17.4307 135.343 18.5307 135.543C19.6307 135.743 20.4307 136.843 20.2307 137.943C20.0307 139.043 18.9307 139.843 17.8307 139.643C16.6307 139.443 15.9307 138.343 16.1307 137.243Z" fill="#50945D"/>
  <path d="M0.03066 137.243C0.23066 136.143 1.33068 135.343 2.43068 135.543C3.53068 135.743 4.33064 136.843 4.13064 137.943C3.93064 139.043 2.83067 139.843 1.73067 139.643C0.630672 139.443 -0.16934 138.343 0.03066 137.243Z" fill="#50945D"/>
  <path d="M64.3306 123.743C64.5306 122.643 65.6307 121.843 66.7307 122.043C67.8307 122.243 68.6307 123.343 68.4307 124.443C68.2307 125.543 67.1307 126.343 66.0307 126.143C64.8307 125.943 64.1306 124.843 64.3306 123.743Z" fill="#50945D"/>
  <path d="M48.2306 123.743C48.4306 122.643 49.5306 121.843 50.6306 122.043C51.7306 122.243 52.5306 123.343 52.3306 124.443C52.1306 125.543 51.0306 126.343 49.9306 126.143C48.8306 125.943 48.0306 124.843 48.2306 123.743Z" fill="#50945D"/>
  <path d="M32.2306 123.743C32.4306 122.643 33.5306 121.843 34.6306 122.043C35.7306 122.243 36.5306 123.343 36.3306 124.443C36.1306 125.543 35.0306 126.343 33.9306 126.143C32.7306 125.943 31.9306 124.843 32.2306 123.743Z" fill="#50945D"/>
  <path d="M16.1307 123.743C16.3307 122.643 17.4307 121.843 18.5307 122.043C19.6307 122.243 20.4307 123.343 20.2307 124.443C20.0307 125.543 18.9307 126.343 17.8307 126.143C16.6307 125.943 15.9307 124.843 16.1307 123.743Z" fill="#50945D"/>
  <path d="M0.03066 123.743C0.23066 122.643 1.33068 121.843 2.43068 122.043C3.53068 122.243 4.33064 123.343 4.13064 124.443C3.93064 125.543 2.83067 126.343 1.73067 126.143C0.630672 125.943 -0.16934 124.843 0.03066 123.743Z" fill="#50945D"/>
  <path d="M64.3306 110.143C64.5306 109.043 65.6307 108.243 66.7307 108.443C67.8307 108.643 68.6307 109.743 68.4307 110.843C68.2307 111.943 67.1307 112.743 66.0307 112.543C64.8307 112.343 64.1306 111.343 64.3306 110.143Z" fill="#50945D"/>
  <path d="M48.2306 110.143C48.4306 109.043 49.5306 108.243 50.6306 108.443C51.7306 108.643 52.5306 109.743 52.3306 110.843C52.1306 111.943 51.0306 112.743 49.9306 112.543C48.8306 112.343 48.0306 111.343 48.2306 110.143Z" fill="#50945D"/>
  <path d="M32.2306 110.143C32.4306 109.043 33.5306 108.243 34.6306 108.443C35.7306 108.643 36.5306 109.743 36.3306 110.843C36.1306 111.943 35.0306 112.743 33.9306 112.543C32.7306 112.343 31.9306 111.343 32.2306 110.143Z" fill="#50945D"/>
  <path d="M16.1307 110.143C16.3307 109.043 17.4307 108.243 18.5307 108.443C19.6307 108.643 20.4307 109.743 20.2307 110.843C20.0307 111.943 18.9307 112.743 17.8307 112.543C16.6307 112.343 15.9307 111.343 16.1307 110.143Z" fill="#50945D"/>
  <path d="M0.03066 110.143C0.23066 109.043 1.33068 108.243 2.43068 108.443C3.53068 108.643 4.33064 109.743 4.13064 110.843C3.93064 111.943 2.83067 112.743 1.73067 112.543C0.630672 112.343 -0.16934 111.343 0.03066 110.143Z" fill="#50945D"/>
  <path d="M64.3306 96.643C64.5306 95.543 65.6307 94.743 66.7307 94.943C67.8307 95.143 68.6307 96.243 68.4307 97.343C68.2307 98.443 67.1307 99.243 66.0307 99.043C64.8307 98.843 64.1306 97.743 64.3306 96.643Z" fill="#50945D"/>
  <path d="M48.2306 96.643C48.4306 95.543 49.5306 94.743 50.6306 94.943C51.7306 95.143 52.5306 96.243 52.3306 97.343C52.1306 98.443 51.0306 99.243 49.9306 99.043C48.8306 98.843 48.0306 97.743 48.2306 96.643Z" fill="#50945D"/>
  <path d="M32.2306 96.643C32.4306 95.543 33.5306 94.743 34.6306 94.943C35.7306 95.143 36.5306 96.243 36.3306 97.343C36.1306 98.443 35.0306 99.243 33.9306 99.043C32.7306 98.843 31.9306 97.743 32.2306 96.643Z" fill="#50945D"/>
  <path d="M16.1307 96.643C16.3307 95.543 17.4307 94.743 18.5307 94.943C19.6307 95.143 20.4307 96.243 20.2307 97.343C20.0307 98.443 18.9307 99.243 17.8307 99.043C16.6307 98.843 15.9307 97.743 16.1307 96.643Z" fill="#50945D"/>
  <path d="M0.03066 96.643C0.23066 95.543 1.33068 94.743 2.43068 94.943C3.53068 95.143 4.33064 96.243 4.13064 97.343C3.93064 98.443 2.83067 99.243 1.73067 99.043C0.630672 98.843 -0.16934 97.743 0.03066 96.643Z" fill="#50945D"/>
  <path d="M64.3306 83.143C64.5306 82.043 65.6307 81.243 66.7307 81.443C67.8307 81.643 68.6307 82.743 68.4307 83.843C68.2307 84.943 67.1307 85.743 66.0307 85.543C64.8307 85.343 64.1306 84.243 64.3306 83.143Z" fill="#50945D"/>
  <path d="M48.2306 83.143C48.4306 82.043 49.5306 81.243 50.6306 81.443C51.7306 81.643 52.5306 82.743 52.3306 83.843C52.1306 84.943 51.0306 85.743 49.9306 85.543C48.8306 85.343 48.0306 84.243 48.2306 83.143Z" fill="#50945D"/>
  <path d="M32.2306 83.143C32.4306 82.043 33.5306 81.243 34.6306 81.443C35.7306 81.643 36.5306 82.743 36.3306 83.843C36.1306 84.943 35.0306 85.743 33.9306 85.543C32.7306 85.343 31.9306 84.243 32.2306 83.143Z" fill="#50945D"/>
  <path d="M16.1307 83.143C16.3307 82.043 17.4307 81.243 18.5307 81.443C19.6307 81.643 20.4307 82.743 20.2307 83.843C20.0307 84.943 18.9307 85.743 17.8307 85.543C16.6307 85.343 15.9307 84.243 16.1307 83.143Z" fill="#50945D"/>
  <path d="M0.03066 83.143C0.23066 82.043 1.33068 81.243 2.43068 81.443C3.53068 81.643 4.33064 82.743 4.13064 83.843C3.93064 84.943 2.83067 85.743 1.73067 85.543C0.630672 85.343 -0.16934 84.243 0.03066 83.143Z" fill="#50945D"/>
  <path d="M64.3306 69.5431C64.5306 68.4431 65.6307 67.6432 66.7307 67.8432C67.8307 68.0432 68.6307 69.1431 68.4307 70.2431C68.2307 71.3431 67.1307 72.1431 66.0307 71.9431C64.8307 71.8431 64.1306 70.7431 64.3306 69.5431Z" fill="#50945D"/>
  <path d="M48.2306 69.5431C48.4306 68.4431 49.5306 67.6432 50.6306 67.8432C51.7306 68.0432 52.5306 69.1431 52.3306 70.2431C52.1306 71.3431 51.0306 72.1431 49.9306 71.9431C48.8306 71.8431 48.0306 70.7431 48.2306 69.5431Z" fill="#50945D"/>
  <path d="M32.2306 69.5431C32.4306 68.4431 33.5306 67.6432 34.6306 67.8432C35.7306 68.0432 36.5306 69.1431 36.3306 70.2431C36.1306 71.3431 35.0306 72.1431 33.9306 71.9431C32.7306 71.8431 31.9306 70.7431 32.2306 69.5431Z" fill="#50945D"/>
  <path d="M16.1307 69.5431C16.3307 68.4431 17.4307 67.6432 18.5307 67.8432C19.6307 68.0432 20.4307 69.1431 20.2307 70.2431C20.0307 71.3431 18.9307 72.1431 17.8307 71.9431C16.6307 71.8431 15.9307 70.7431 16.1307 69.5431Z" fill="#50945D"/>
  <path d="M0.03066 69.5431C0.23066 68.4431 1.33068 67.6432 2.43068 67.8432C3.53068 68.0432 4.33064 69.1431 4.13064 70.2431C3.93064 71.3431 2.83067 72.1431 1.73067 71.9431C0.630672 71.8431 -0.16934 70.7431 0.03066 69.5431Z" fill="#50945D"/>
  <path d="M64.3306 56.0431C64.5306 54.9431 65.6307 54.1432 66.7307 54.3432C67.8307 54.5432 68.6307 55.6431 68.4307 56.7431C68.2307 57.8431 67.1307 58.6431 66.0307 58.4431C64.8307 58.2431 64.1306 57.1431 64.3306 56.0431Z" fill="#50945D"/>
  <path d="M48.2306 56.0431C48.4306 54.9431 49.5306 54.1432 50.6306 54.3432C51.7306 54.5432 52.5306 55.6431 52.3306 56.7431C52.1306 57.8431 51.0306 58.6431 49.9306 58.4431C48.8306 58.2431 48.0306 57.1431 48.2306 56.0431Z" fill="#50945D"/>
  <path d="M32.2306 56.0431C32.4306 54.9431 33.5306 54.1432 34.6306 54.3432C35.7306 54.5432 36.5306 55.6431 36.3306 56.7431C36.1306 57.8431 35.0306 58.6431 33.9306 58.4431C32.7306 58.2431 31.9306 57.1431 32.2306 56.0431Z" fill="#50945D"/>
  <path d="M16.1307 56.0431C16.3307 54.9431 17.4307 54.1432 18.5307 54.3432C19.6307 54.5432 20.4307 55.6431 20.2307 56.7431C20.0307 57.8431 18.9307 58.6431 17.8307 58.4431C16.6307 58.2431 15.9307 57.1431 16.1307 56.0431Z" fill="#50945D"/>
  <path d="M0.03066 56.0431C0.23066 54.9431 1.33068 54.1432 2.43068 54.3432C3.53068 54.5432 4.33064 55.6431 4.13064 56.7431C3.93064 57.8431 2.83067 58.6431 1.73067 58.4431C0.630672 58.2431 -0.16934 57.1431 0.03066 56.0431Z" fill="#50945D"/>
  <path d="M64.3306 42.5431C64.5306 41.4431 65.6307 40.6432 66.7307 40.8432C67.8307 41.0432 68.6307 42.1431 68.4307 43.2431C68.2307 44.3431 67.1307 45.1431 66.0307 44.9431C64.8307 44.7431 64.1306 43.6431 64.3306 42.5431Z" fill="#50945D"/>
  <path d="M48.2306 42.5431C48.4306 41.4431 49.5306 40.6432 50.6306 40.8432C51.7306 41.0432 52.5306 42.1431 52.3306 43.2431C52.1306 44.3431 51.0306 45.1431 49.9306 44.9431C48.8306 44.7431 48.0306 43.6431 48.2306 42.5431Z" fill="#50945D"/>
  <path d="M32.2306 42.5431C32.4306 41.4431 33.5306 40.6432 34.6306 40.8432C35.7306 41.0432 36.5306 42.1431 36.3306 43.2431C36.1306 44.3431 35.0306 45.1431 33.9306 44.9431C32.7306 44.7431 31.9306 43.6431 32.2306 42.5431Z" fill="#50945D"/>
  <path d="M16.1307 42.5431C16.3307 41.4431 17.4307 40.6432 18.5307 40.8432C19.6307 41.0432 20.4307 42.1431 20.2307 43.2431C20.0307 44.3431 18.9307 45.1431 17.8307 44.9431C16.6307 44.7431 15.9307 43.6431 16.1307 42.5431Z" fill="#50945D"/>
  <path d="M0.03066 42.5431C0.23066 41.4431 1.33068 40.6432 2.43068 40.8432C3.53068 41.0432 4.33064 42.1431 4.13064 43.2431C3.93064 44.3431 2.83067 45.1431 1.73067 44.9431C0.630672 44.7431 -0.16934 43.6431 0.03066 42.5431Z" fill="#50945D"/>
  <path d="M64.3306 29.0429C64.5306 27.9429 65.6307 27.1429 66.7307 27.3429C67.8307 27.5429 68.6307 28.6429 68.4307 29.7429C68.2307 30.8429 67.1307 31.6429 66.0307 31.4429C64.8307 31.2429 64.1306 30.1429 64.3306 29.0429Z" fill="#50945D"/>
  <path d="M50.3306 27.2429C49.1708 27.2429 48.2307 28.1831 48.2307 29.3429C48.2307 30.5027 49.1708 31.4429 50.3306 31.4429C51.4904 31.4429 52.4307 30.5027 52.4307 29.3429C52.4307 28.1831 51.4904 27.2429 50.3306 27.2429Z" fill="#50945D"/>
  <path d="M33.9844 27.2828C32.8353 27.4393 32.0306 28.4979 32.1872 29.647C32.3438 30.7961 33.4023 31.6007 34.5514 31.4441C35.7006 31.2876 36.5052 30.2291 36.3486 29.08C36.192 27.9309 35.1336 27.1262 33.9844 27.2828Z" fill="#50945D"/>
  <path d="M16.1306 29.0429C16.3306 27.9429 17.4306 27.1429 18.5306 27.3429C19.6306 27.5429 20.4306 28.6429 20.2306 29.7429C20.0306 30.8429 18.9306 31.6429 17.8306 31.4429C16.6306 31.2429 15.9306 30.1429 16.1306 29.0429Z" fill="#50945D"/>
  <path d="M0.03066 29.0429C0.23066 27.9429 1.33068 27.1429 2.43068 27.3429C3.53068 27.5429 4.33064 28.6429 4.13064 29.7429C3.93064 30.8429 2.83067 31.6429 1.73067 31.4429C0.630672 31.2429 -0.16934 30.1429 0.03066 29.0429Z" fill="#50945D"/>
  <path d="M64.3306 15.4433C64.5306 14.3433 65.6307 13.5432 66.7307 13.7432C67.8307 13.9432 68.6307 15.0433 68.4307 16.1433C68.2307 17.2433 67.1307 18.0433 66.0307 17.8433C64.8307 17.6433 64.1306 16.6433 64.3306 15.4433Z" fill="#50945D"/>
  <path d="M50.3306 13.7431C49.1708 13.7431 48.2307 14.6833 48.2307 15.8431C48.2307 17.0029 49.1708 17.9431 50.3306 17.9431C51.4904 17.9431 52.4307 17.0029 52.4307 15.8431C52.4307 14.6833 51.4904 13.7431 50.3306 13.7431Z" fill="#50945D"/>
  <path d="M33.9887 13.7833C32.8396 13.9398 32.0349 14.9984 32.1915 16.1475C32.3481 17.2966 33.4066 18.1012 34.5557 17.9446C35.7048 17.7881 36.5094 16.7296 36.3529 15.5805C36.1963 14.4313 35.1378 13.6267 33.9887 13.7833Z" fill="#50945D"/>
  <path d="M16.1306 15.4433C16.3306 14.3433 17.4306 13.5432 18.5306 13.7432C19.6306 13.9432 20.4306 15.0433 20.2306 16.1433C20.0306 17.2433 18.9306 18.0433 17.8306 17.8433C16.6306 17.6433 15.9306 16.6433 16.1306 15.4433Z" fill="#50945D"/>
  <path d="M0.03066 15.4433C0.23066 14.3433 1.33068 13.5432 2.43068 13.7432C3.53068 13.9432 4.33064 15.0433 4.13064 16.1433C3.93064 17.2433 2.83067 18.0433 1.73067 17.8433C0.630672 17.6433 -0.16934 16.6433 0.03066 15.4433Z" fill="#50945D"/>
  <path d="M64.3306 1.94326C64.5306 0.84326 65.6307 0.043248 66.7307 0.243248C67.8307 0.443248 68.6307 1.54327 68.4307 2.64327C68.2307 3.74327 67.1307 4.54328 66.0307 4.34328C64.8307 4.14328 64.1306 3.04326 64.3306 1.94326Z" fill="#50945D"/>
  <path d="M50.3306 0.243103C49.1708 0.243103 48.2307 1.18334 48.2307 2.34314C48.2307 3.50294 49.1708 4.44312 50.3306 4.44312C51.4904 4.44312 52.4307 3.50294 52.4307 2.34314C52.4307 1.18334 51.4904 0.243103 50.3306 0.243103Z" fill="#50945D"/>
  <path d="M33.993 0.283746C32.8438 0.440319 32.0392 1.49884 32.1958 2.64797C32.3523 3.7971 33.4108 4.60169 34.56 4.44512C35.7091 4.28855 36.5137 3.23009 36.3571 2.08097C36.2006 0.931837 35.1421 0.127173 33.993 0.283746Z" fill="#50945D"/>
  <path d="M16.1306 1.94326C16.3306 0.84326 17.4306 0.043248 18.5306 0.243248C19.6306 0.443248 20.4306 1.54327 20.2306 2.64327C20.0306 3.74327 18.9306 4.54328 17.8306 4.34328C16.6306 4.14328 15.9306 3.04326 16.1306 1.94326Z" fill="#50945D"/>
  <path d="M0.03066 1.94326C0.23066 0.84326 1.33068 0.043248 2.43068 0.243248C3.53068 0.443248 4.33064 1.54327 4.13064 2.64327C3.93064 3.74327 2.83067 4.54328 1.73067 4.34328C0.630672 4.14328 -0.16934 3.04326 0.03066 1.94326Z" fill="#50945D"/>
</svg>