<svg width="24" height="25" viewBox="0 0 24 25" fill="none" xmlns="http://www.w3.org/2000/svg">
<g id="Huge-icon/files and folder/outline/file 01">
<path id="Vector" d="M7 22.5C8.86748 22.5 10.4361 21.2202 10.8766 19.4899C11.0128 18.9547 11.4477 18.5 12 18.5H19M7 22.5C4.79086 22.5 3 20.7091 3 18.5V5.5C3 3.84315 4.34315 2.5 6 2.5H16C17.6569 2.5 19 3.84315 19 5.5V18.5M7 22.5H19C20.8675 22.5 22.4361 21.2202 22.8766 19.4899C23.0128 18.9547 22.5523 18.5 22 18.5H19M15 7.5H7M11 12.5H7" stroke="#50945D" stroke-width="1.5" stroke-linecap="round"/>
</g>
</svg>
