<svg width="24" height="25" viewBox="0 0 24 25" fill="none" xmlns="http://www.w3.org/2000/svg">
<g id="Huge-icon/files and folder/outline/file-accept 01">
<path id="Vector" d="M3 18.5H2.25H3ZM3 6.5H3.75H3ZM7 2.5V1.75V2.5ZM17 2.5V1.75V2.5ZM21 6.5H20.25H21ZM21 12.8431H21.75H21ZM11.3431 22.5V21.75V22.5ZM7 22.5V23.25V22.5ZM19.8284 15.6716L19.2981 15.1412V15.1412L19.8284 15.6716ZM14.1716 21.3284L14.7019 21.8588L14.1716 21.3284ZM13 18.5H12.25H13ZM17 14.5V13.75V14.5ZM9.46852 7.91435C9.14508 7.65559 8.67311 7.70803 8.41435 8.03148C8.15559 8.35493 8.20803 8.82689 8.53148 9.08565L9.46852 7.91435ZM10.7528 9.90226L10.2843 10.4879L10.7528 9.90226ZM12.1301 9.77989L11.5657 9.28602H11.5657L12.1301 9.77989ZM15.5644 6.99388C15.8372 6.68215 15.8056 6.20833 15.4939 5.93557C15.1822 5.66281 14.7083 5.69439 14.4356 6.00612L15.5644 6.99388ZM3.75 18.5L3.75 6.5H2.25L2.25 18.5H3.75ZM7 3.25L17 3.25V1.75L7 1.75V3.25ZM20.25 6.5V12.8431H21.75V6.5H20.25ZM11.3431 21.75H7V23.25H11.3431V21.75ZM19.2981 15.1412L13.6412 20.7981L14.7019 21.8588L20.3588 16.2019L19.2981 15.1412ZM11.3431 23.25C12.6029 23.25 13.8111 22.7496 14.7019 21.8588L13.6412 20.7981C13.0317 21.4076 12.2051 21.75 11.3431 21.75V23.25ZM20.25 12.8431C20.25 13.7051 19.9076 14.5318 19.2981 15.1412L20.3588 16.2019C21.2496 15.3111 21.75 14.1029 21.75 12.8431H20.25ZM3.75 6.5C3.75 4.70507 5.20508 3.25 7 3.25V1.75C4.37665 1.75 2.25 3.87665 2.25 6.5H3.75ZM2.25 18.5C2.25 21.1234 4.37665 23.25 7 23.25V21.75C5.20507 21.75 3.75 20.2949 3.75 18.5H2.25ZM17 3.25C18.7949 3.25 20.25 4.70508 20.25 6.5H21.75C21.75 3.87665 19.6234 1.75 17 1.75V3.25ZM13.75 22.5V18.5H12.25V22.5H13.75ZM17 15.25L21 15.25V13.75L17 13.75V15.25ZM13.75 18.5C13.75 16.7051 15.2051 15.25 17 15.25V13.75C14.3766 13.75 12.25 15.8766 12.25 18.5H13.75ZM8.53148 9.08565L10.2843 10.4879L11.2213 9.31661L9.46852 7.91435L8.53148 9.08565ZM12.6945 10.2738L15.5644 6.99388L14.4356 6.00612L11.5657 9.28602L12.6945 10.2738ZM10.2843 10.4879C11.0156 11.0729 12.0778 10.9786 12.6945 10.2738L11.5657 9.28602C11.4776 9.3867 11.3258 9.40018 11.2213 9.31661L10.2843 10.4879Z" fill="#50945D"/>
</g>
</svg>
