<svg width="118" height="23" viewBox="0 0 118 23" fill="none" xmlns="http://www.w3.org/2000/svg">
<g id="Group 56">
<g id="WECARE">
<path d="M59.2371 15.3219H62.0733C61.9256 16.6734 61.5366 17.8828 60.9064 18.9502C60.2761 20.0177 59.3849 20.8648 58.2326 21.4915C57.0804 22.1085 55.6426 22.4169 53.9192 22.4169C52.6587 22.4169 51.5114 22.1819 50.4774 21.7119C49.4532 21.2418 48.5718 20.5759 47.8332 19.7141C47.0946 18.8425 46.5235 17.7996 46.1197 16.5852C45.7258 15.3611 45.5288 13.9999 45.5288 12.5016V10.3716C45.5288 8.87327 45.7258 7.51695 46.1197 6.30262C46.5235 5.0785 47.0996 4.03065 47.848 3.15908C48.6063 2.2875 49.5172 1.61668 50.5808 1.14662C51.6444 0.67656 52.8409 0.441528 54.1704 0.441528C55.7953 0.441528 57.1691 0.74511 58.2917 1.35227C59.4144 1.95944 60.2859 2.80163 60.9064 3.87886C61.5366 4.94629 61.9256 6.1851 62.0733 7.59529H59.2371C59.0993 6.59641 58.8432 5.73952 58.469 5.02464C58.0948 4.29996 57.563 3.74176 56.8736 3.35004C56.1843 2.95832 55.2832 2.76246 54.1704 2.76246C53.2151 2.76246 52.3731 2.94363 51.6444 3.30597C50.9255 3.66831 50.3198 4.18244 49.8274 4.84836C49.3449 5.51429 48.9805 6.31241 48.7343 7.24274C48.4881 8.17308 48.365 9.20623 48.365 10.3422V12.5016C48.365 13.5494 48.4733 14.5336 48.69 15.4541C48.9165 16.3747 49.2563 17.1826 49.7093 17.8779C50.1623 18.5732 50.7384 19.1216 51.4376 19.5231C52.1368 19.9148 52.964 20.1107 53.9192 20.1107C55.1305 20.1107 56.0956 19.9197 56.8145 19.5378C57.5334 19.1559 58.0751 18.6075 58.4395 17.8926C58.8137 17.1777 59.0796 16.3208 59.2371 15.3219Z" fill="#0E140F"/>
<path d="M73.9204 2.63026L66.8003 22.1232H63.8903L72.0887 0.735317H73.9647L73.9204 2.63026ZM79.8882 22.1232L72.7534 2.63026L72.7091 0.735317H74.5851L82.8131 22.1232H79.8882ZM79.519 14.2055V16.5265H67.4355V14.2055H79.519Z" fill="#0E140F"/>
<path d="M85.6936 0.735317H92.8137C94.4287 0.735317 95.7927 0.980142 96.9055 1.46979C98.0281 1.95944 98.88 2.68412 99.461 3.64383C100.052 4.59375 100.347 5.76401 100.347 7.15461C100.347 8.1339 100.145 9.02996 99.7417 9.84278C99.3478 10.6458 98.7766 11.3313 98.0281 11.8993C97.2895 12.4575 96.4032 12.8737 95.3692 13.1479L94.5715 13.4564H87.8798L87.8503 11.1501H92.9023C93.9265 11.1501 94.7783 10.9739 95.4578 10.6213C96.1373 10.259 96.6494 9.77423 96.9941 9.16706C97.3388 8.5599 97.5111 7.88908 97.5111 7.15461C97.5111 6.332 97.3486 5.61222 97.0236 4.99526C96.6987 4.3783 96.1866 3.90334 95.4874 3.57038C94.798 3.22763 93.9068 3.05625 92.8137 3.05625H88.5446V22.1232H85.6936V0.735317ZM98.2645 22.1232L93.0352 12.4281L96.0044 12.4134L101.308 21.9469V22.1232H98.2645Z" fill="#0E140F"/>
<path d="M118 19.8169V22.1232H106.611V19.8169H118ZM107.187 0.735317V22.1232H104.336V0.735317H107.187ZM116.493 9.93091V12.2372H106.611V9.93091H116.493ZM117.852 0.735317V3.05625H106.611V0.735317H117.852Z" fill="#0E140F"/>
</g>
<g id="WECARE_2">
<path d="M7.37293 18.7299L11.6568 0.735352H14.0498L14.5964 3.732L10.0319 22.1232H7.46157L7.37293 18.7299ZM5.17192 0.735352L8.71718 18.7299L8.42174 22.1232H5.55599L0.784668 0.735352H5.17192ZM18.3632 18.6565L21.8642 0.735352H26.2514L21.4949 22.1232H18.6291L18.3632 18.6565ZM15.3941 0.735352L19.7075 18.8034L19.5893 22.1232H17.019L12.4249 3.71731L13.0158 0.735352H15.3941Z" fill="#50945D"/>
<path d="M43.0914 18.6859V22.1232H31.6432V18.6859H43.0914ZM33.0908 0.735352V22.1232H28.6592V0.735352H33.0908ZM41.5994 9.4462V12.7954H31.6432V9.4462H41.5994ZM43.0766 0.735352V4.18737H31.6432V0.735352H43.0766Z" fill="#50945D"/>
</g>
</g>
</svg>
