<svg width="42" height="43" viewBox="0 0 42 43" fill="none" xmlns="http://www.w3.org/2000/svg">
<path id="Union" fill-rule="evenodd" clip-rule="evenodd" d="M20.4232 0.684326H27.8194C27.8194 14.6811 14.0908 28.319 0.000488281 28.319C0.260011 28.319 0.519965 28.3125 0.779488 28.3035C18.4436 26.1729 20.4232 10.5127 20.4232 0.684326ZM14.0909 42.3154H21.4862C21.4862 32.4871 23.4663 16.8269 41.1304 14.6963C41.3895 14.6872 41.6499 14.6812 41.9098 14.6812C27.8195 14.6812 14.0909 28.3191 14.0909 42.3154ZM23.036 42.3154H27.8196V28.3191H41.9099V14.7982C24.9574 17.2855 23.036 32.6317 23.036 42.3154ZM0.000488281 14.6811V28.2011C16.9529 25.7143 18.8744 10.3685 18.8744 0.684326H14.0908V14.6811H0.000488281Z" fill="#50945D"/>
</svg>
