<svg width="24" height="25" viewBox="0 0 24 25" fill="none" xmlns="http://www.w3.org/2000/svg">
<g id="Huge-icon/user/outline/user-rectangle">
<circle id="Ellipse 321" cx="3" cy="3" r="3" transform="matrix(1 0 0 -1 9 12.5)" stroke="#50945D" stroke-width="1.5" stroke-linejoin="round"/>
<path id="Vector" d="M18.9989 22.3743C20.7247 21.9306 22 20.3642 22 18.5V6.5C22 4.29086 20.2091 2.5 18 2.5H6C3.79086 2.5 2 4.29086 2 6.5V18.5C2 20.3642 3.27532 21.9306 5.00111 22.3743M18.9989 22.3743C18.6796 22.4563 18.3449 22.5 18 22.5H6C5.6551 22.5 5.32039 22.4563 5.00111 22.3743M18.9989 22.3743C18.9318 18.5663 15.824 15.5 12 15.5C8.17601 15.5 5.06818 18.5663 5.00111 22.3743" stroke="#50945D" stroke-width="1.5"/>
</g>
</svg>
